<?xml version="1.0" encoding="UTF-8" standalone="no"?>
<!-- Created with Inkscape (http://www.inkscape.org/) -->

<svg
   xmlns:dc="http://purl.org/dc/elements/1.1/"
   xmlns:cc="http://creativecommons.org/ns#"
   xmlns:rdf="http://www.w3.org/1999/02/22-rdf-syntax-ns#"
   xmlns:svg="http://www.w3.org/2000/svg"
   xmlns="http://www.w3.org/2000/svg"
   xmlns:sodipodi="http://sodipodi.sourceforge.net/DTD/sodipodi-0.dtd"
   xmlns:inkscape="http://www.inkscape.org/namespaces/inkscape"
   version="1.1"
   width="230"
   height="205"
   id="svg5325"
   xml:space="preserve"
   inkscape:version="0.48.3.1 r9886"
   sodipodi:docname="GUSTOLOGO.svg"><sodipodi:namedview
     pagecolor="#ffffff"
     bordercolor="#666666"
     borderopacity="1"
     objecttolerance="10"
     gridtolerance="10"
     guidetolerance="10"
     inkscape:pageopacity="0"
     inkscape:pageshadow="2"
     inkscape:window-width="640"
     inkscape:window-height="480"
     id="namedview6710"
     showgrid="false"
     inkscape:zoom="1.1525209"
     inkscape:cx="114.42975"
     inkscape:cy="102.38426"
     inkscape:window-x="65"
     inkscape:window-y="24"
     inkscape:window-maximized="0"
     inkscape:current-layer="svg5325" /><metadata
     id="metadata5331"><rdf:RDF><cc:Work
         rdf:about=""><dc:format>image/svg+xml</dc:format><dc:type
           rdf:resource="http://purl.org/dc/dcmitype/StillImage" /><dc:title /></cc:Work></rdf:RDF></metadata><defs
     id="defs5329"><clipPath
       id="clipPath5339"><path
         d="M 0,0 792,0 792,612 0,612 0,0 z"
         id="path5341"
         inkscape:connector-curvature="0" /></clipPath><clipPath
       id="clipPath5383"><path
         d="M 0,0 792,0 792,612 0,612 0,0 z"
         id="path5385"
         inkscape:connector-curvature="0" /></clipPath><clipPath
       id="clipPath5411"><path
         d="M 0,0 792,0 792,612 0,612 0,0 z"
         id="path5413"
         inkscape:connector-curvature="0" /></clipPath><clipPath
       id="clipPath5547"><path
         d="M 0,0 792,0 792,612 0,612 0,0 z"
         id="path5549"
         inkscape:connector-curvature="0" /></clipPath><clipPath
       id="clipPath5575"><path
         d="M 0,0 792,0 792,612 0,612 0,0 z"
         id="path5577"
         inkscape:connector-curvature="0" /></clipPath></defs><g
     transform="matrix(1.25,0,0,-1.25,-558.80037,481.73004)"
     id="g5333"><g
       transform="translate(492.4745,357.5479)"
       id="g5507"><path
         d="m 0,0 c -1.969,1.156 -4.611,3.048 -9.28,6.535 -0.533,0.398 -1.054,0.772 -1.563,1.123 -0.049,0.034 -0.095,0.063 -0.144,0.096 -0.448,0.308 -0.89,0.602 -1.321,0.876 -0.295,0.189 -0.58,0.357 -0.867,0.53 -0.175,0.106 -0.357,0.221 -0.53,0.322 -0.341,0.199 -0.67,0.378 -0.999,0.556 -0.109,0.059 -0.223,0.126 -0.33,0.183 -0.344,0.181 -0.675,0.344 -1.003,0.504 -0.085,0.041 -0.174,0.089 -0.258,0.128 -0.32,0.153 -0.629,0.289 -0.934,0.421 -0.085,0.037 -0.176,0.08 -0.26,0.116 -0.296,0.125 -0.579,0.234 -0.861,0.342 -0.085,0.033 -0.176,0.071 -0.261,0.102 -0.265,0.098 -0.518,0.182 -0.77,0.266 -0.094,0.031 -0.191,0.066 -0.283,0.095 -0.232,0.074 -0.453,0.136 -0.674,0.198 -0.101,0.029 -0.208,0.061 -0.307,0.088 -0.199,0.052 -0.386,0.095 -0.575,0.139 -0.112,0.025 -0.227,0.055 -0.336,0.078 -0.163,0.034 -0.315,0.061 -0.469,0.09 -0.123,0.022 -0.251,0.047 -0.37,0.066 -0.125,0.02 -0.243,0.035 -0.362,0.051 -0.136,0.019 -0.275,0.039 -0.404,0.052 -0.088,0.01 -0.168,0.016 -0.252,0.023 -0.151,0.014 -0.303,0.027 -0.443,0.035 -0.049,0.002 -0.093,0.003 -0.141,0.005 -0.167,0.007 -0.33,0.013 -0.48,0.013 -0.01,0 -0.02,0 -0.031,0 -0.348,-10e-4 -0.649,-0.017 -0.902,-0.042 -0.198,-0.04 -0.389,-0.09 -0.581,-0.138 -0.136,-0.034 -0.276,-0.063 -0.407,-0.1 -0.151,-0.042 -0.292,-0.093 -0.438,-0.14 -0.172,-0.055 -0.347,-0.106 -0.512,-0.167 -0.129,-0.048 -0.25,-0.104 -0.375,-0.156 -0.169,-0.069 -0.342,-0.136 -0.504,-0.212 -0.137,-0.064 -0.264,-0.138 -0.396,-0.207 -0.139,-0.072 -0.281,-0.141 -0.413,-0.218 -0.16,-0.095 -0.309,-0.199 -0.459,-0.3 -0.092,-0.062 -0.189,-0.118 -0.277,-0.182 -0.186,-0.136 -0.358,-0.282 -0.526,-0.429 -0.043,-0.038 -0.092,-0.071 -0.134,-0.109 -0.205,-0.189 -0.397,-0.386 -0.574,-0.591 -0.001,0 -0.001,-10e-4 -0.002,-0.002 -0.178,-0.207 -0.342,-0.422 -0.489,-0.646 -0.332,-0.503 -0.544,-1.025 -0.68,-1.553 -0.023,-0.092 -0.065,-0.183 -0.083,-0.275 -0.003,-0.015 -0.001,-0.031 -0.004,-0.046 -0.335,-1.851 0.498,-3.767 2.41,-5.307 1.218,-0.985 3.172,-1.739 5.782,-2.254 2.705,-0.532 6.115,-0.805 10.155,-0.805 C -8.298,-0.846 -2.811,-0.32 0,0"
         id="path5509"
         style="fill:#e2b74b;fill-opacity:1;fill-rule:nonzero;stroke:none"
         inkscape:connector-curvature="0" /></g><g
       transform="translate(544.7587,366.6919)"
       id="g5511"><path
         d="m 0,0 c 0.018,0.96 -0.384,1.756 -1.132,2.4 -0.1,0.085 -0.184,0.178 -0.298,0.258 -0.279,0.195 -0.613,0.368 -0.972,0.529 -0.252,0.113 -0.524,0.218 -0.815,0.314 -1.55,0.513 -3.623,0.785 -6.146,0.785 -4.858,0 -11.084,-0.971 -18.006,-2.81 -5.975,-1.588 -11.4,-2.359 -16.59,-2.359 -7.898,0 -14.791,1.77 -22.771,3.821 l -1.84,0.472 c -1.197,0.305 -2.364,0.509 -3.502,0.633 -0.764,0.083 -1.517,0.136 -2.246,0.136 -0.033,0 -0.065,-0.003 -0.097,-0.003 3.156,-0.258 7.75,-1.752 13.842,-6.387 0.918,-0.65 1.815,-1.298 2.673,-1.911 0.309,-0.22 0.613,-0.434 0.914,-0.645 4.085,-2.734 7.265,-4.214 9.34,-4.981 0.891,-0.298 2.061,-0.652 3.527,-1.007 3.297,-0.8 8.721,-1.753 15.84,-1.753 1.328,0 2.687,0.033 4.043,0.099 0.524,0.025 1.055,0.066 1.59,0.114 C -12.065,-11.331 -0.067,-5.93 0,0"
         id="path5513"
         style="fill:#e2b74b;fill-opacity:1;fill-rule:nonzero;stroke:none"
         inkscape:connector-curvature="0" /></g><g
       transform="translate(516.4794,355.2905)"
       id="g5515"><path
         d="m 0,0 c -6.896,0 -12.137,0.919 -15.316,1.691 -3.327,0.806 -5.141,1.623 -5.159,1.631 l -0.855,0.4 -0.02,-0.004 c -0.132,0.059 -0.275,0.126 -0.429,0.203 l -0.614,0.301 -0.679,0.359 c -0.522,0.282 -1.055,0.587 -1.582,0.908 -0.596,0.362 -1.209,0.757 -1.823,1.167 -0.66,0.443 -1.355,0.932 -2.005,1.398 -0.354,0.251 -0.715,0.511 -1.081,0.776 -1.085,0.782 -2.21,1.593 -3.394,2.386 -0.482,0.32 -0.957,0.626 -1.424,0.913 6.272,-1.547 12.108,-2.717 18.701,-2.717 5.387,0 10.998,0.795 17.157,2.431 6.742,1.792 12.773,2.739 17.439,2.739 3.191,0 5.607,-0.463 6.803,-1.302 0.666,-0.467 0.982,-1.077 0.972,-1.87 C 26.631,5.904 14.127,0.586 3.934,0.095 2.617,0.032 1.295,0 0,0"
         id="path5517"
         style="fill:#c4403f;fill-opacity:1;fill-rule:nonzero;stroke:none"
         inkscape:connector-curvature="0" /></g><g
       transform="translate(528.4287,366.6733)"
       id="g5519"><path
         d="m 0,0 c 0.15,-0.521 -1.621,-1.206 -3.957,-1.528 -2.332,-0.324 -4.346,-0.162 -4.496,0.359 -0.149,0.522 1.625,1.206 3.957,1.528 C -2.162,0.683 -0.148,0.522 0,0"
         id="path5521"
         style="fill:#ffffff;fill-opacity:1;fill-rule:nonzero;stroke:none"
         inkscape:connector-curvature="0" /></g><g
       transform="translate(535.915,362.5581)"
       id="g5523"><path
         d="m 0,0 c 0.394,-0.848 -1.807,-2.252 -4.918,-3.141 -3.113,-0.885 -5.955,-0.917 -6.35,-0.071 -0.396,0.848 1.805,2.253 4.918,3.14 C -3.238,0.815 -0.397,0.848 0,0"
         id="path5525"
         style="fill:#ffffff;fill-opacity:1;fill-rule:nonzero;stroke:none"
         inkscape:connector-curvature="0" /></g><g
       transform="translate(513.2255,360.0493)"
       id="g5527"><path
         d="m 0,0 c -0.004,-0.911 -3.41,-1.643 -7.611,-1.636 -4.202,0.007 -7.604,0.751 -7.6,1.66 0.004,0.911 3.41,1.643 7.609,1.636 C -3.398,1.654 0.002,0.91 0,0"
         id="path5529"
         style="fill:#ffffff;fill-opacity:1;fill-rule:nonzero;stroke:none"
         inkscape:connector-curvature="0" /></g><g
       transform="translate(544.6572,370.2617)"
       id="g5531"><path
         d="m 0,0 c -1.908,1.34 -5.02,2.02 -9.26,2.02 -5.09,0 -11.539,-1.01 -18.67,-2.9 -5.76,-1.53 -10.968,-2.27 -15.929,-2.27 -7.561,0 -13.991,1.65 -22.12,3.74 l -1.851,0.47 c -2.199,0.56 -4.35,0.85 -6.389,0.85 -5.051,0 -9.23,-1.76 -11.16,-4.69 -1.859,-2.83 -1.121,-6.11 1.93,-8.57 2.89,-2.33 8.73,-3.51 17.349,-3.51 6.811,0 13.85,0.79 16,1.07 0.131,0.01 0.241,0.03 0.33,0.04 0.44,-0.19 1.161,-0.56 2.35,-0.98 0.721,-0.26 1.611,-0.54 2.711,-0.8 0.43,-0.11 0.891,-0.21 1.391,-0.32 l 0.009,0 c 0.02,-0.01 0.039,-0.01 0.059,-0.02 3.49,-0.75 8.621,-1.51 15.07,-1.51 1.371,0 2.781,0.04 4.17,0.1 5.74,0.28 12.17,1.9 17.201,4.34 5.629,2.73 8.741,6.05 8.78,9.36 C 1.99,-2.13 1.32,-0.93 0,0 m -66.1,-13.56 c -7.939,0 -13.459,1.05 -15.939,3.06 -2.57,2.07 -3.199,4.82 -1.641,7.18 1.18,1.79 3.381,3.06 6.141,3.61 0.01,-0.01 0.029,-0.01 0.039,0 2.182,0.18 7.65,-0.21 16.041,-6.47 4.619,-3.45 7.32,-5.37 9.31,-6.53 -2.8,-0.32 -8.31,-0.85 -13.951,-0.85 m 41.961,-2.42 c -1.349,-0.07 -2.711,-0.1 -4.041,-0.1 -7.119,0 -12.539,0.96 -15.84,1.75 -0.24,0.06 -0.48,0.12 -0.709,0.17 l 0,0.01 c 0,0 -0.05,0.01 -0.15,0.03 -0.961,0.26 -1.779,0.5 -2.451,0.72 -0.049,0.02 -0.11,0.04 -0.158,0.06 -2.641,0.97 -7.092,3.08 -12.971,7.55 -6.121,4.66 -10.731,6.15 -13.891,6.4 l 0.131,0 c 1.82,0 3.75,-0.26 5.75,-0.77 l 1.84,-0.47 c 7.98,-2.05 14.869,-3.82 22.77,-3.82 5.189,0 10.621,0.77 16.589,2.36 6.92,1.83 13.151,2.81 18.01,2.81 3.67,0 6.41,-0.57 7.93,-1.63 0.961,-0.68 1.451,-1.57 1.431,-2.66 -0.07,-6.23 -13.31,-11.88 -24.24,-12.41"
         id="path5533"
         style="fill:#000000;fill-opacity:1;fill-rule:nonzero;stroke:none"
         inkscape:connector-curvature="0" /></g><g
       transform="translate(515.4482,362.4141)"
       id="g5535"><path
         d="m 0,0 0,15.166 -1.598,0 L -2.502,0 0,0 z"
         id="path5537"
         style="fill:#000000;fill-opacity:1;fill-rule:nonzero;stroke:none"
         inkscape:connector-curvature="0" /></g><g
       transform="translate(492.7958,362.4141)"
       id="g5539"><path
         d="m 0,0 -0.902,15.166 -1.598,0 L -2.5,0 0,0 z"
         id="path5541"
         style="fill:#000000;fill-opacity:1;fill-rule:nonzero;stroke:none"
         inkscape:connector-curvature="0" /></g><g
       id="g5543"><g
         clip-path="url(#clipPath5547)"
         id="g5545"><g
           transform="translate(527.788,375.5527)"
           id="g5551"><path
             d="m 0,0 c -3.563,-3.563 -9.639,-3.265 -9.639,-3.265 0,0 -0.299,6.078 3.266,9.641 3.56,3.563 9.639,3.265 9.639,3.265 C 3.266,9.641 3.563,3.564 0,0"
             id="path5553"
             style="fill:#7ea840;fill-opacity:1;fill-rule:nonzero;stroke:none"
             inkscape:connector-curvature="0" /></g><g
           transform="translate(460.6923,294.5527)"
           id="g5555"><path
             d="m 0,0 11.498,0 0,-47.427 -0.719,-0.43 c -2.299,-1.438 -6.467,-2.732 -11.783,-2.732 -8.049,0 -12.648,4.025 -12.648,11.211 l 0,82.491 c 0,7.186 4.599,11.21 12.648,11.21 8.047,0 12.502,-4.024 12.502,-11.21 l 0,-16.814 -5.748,0 0,16.096 c 0,4.599 -2.873,7.617 -6.754,7.617 -3.881,0 -6.9,-3.018 -6.9,-7.617 l 0,-82.206 c 0,-4.023 3.019,-6.466 6.9,-6.466 2.729,0 5.316,0.862 6.754,1.726 l 0,40.239 -5.75,0 L 0,0 z"
             id="path5557"
             style="fill:#000000;fill-opacity:1;fill-rule:nonzero;stroke:none"
             inkscape:connector-curvature="0" /></g><g
           transform="translate(515.4482,354.0649)"
           id="g5559"><path
             d="m 0,0 0,-98.89 c 0,-7.187 -4.455,-11.211 -12.504,-11.211 -8.049,0 -12.648,4.024 -12.648,11.211 l 0,103.828 2.912,-1.754 2.838,-101.931 c 0,-4.599 2.73,-7.043 6.898,-7.043 4.168,0 6.754,2.444 6.754,7.043 L -2.758,0.162 0,0 z"
             id="path5561"
             style="fill:#000000;fill-opacity:1;fill-rule:nonzero;stroke:none"
             inkscape:connector-curvature="0" /></g><g
           transform="translate(536.7158,254.5996)"
           id="g5563"><path
             d="m 0,0 c 0,-3.449 1.291,-6.324 6.609,-6.324 4.885,0 7.043,1.869 7.043,6.611 l 0,17.821 c 0,5.46 -1.006,8.622 -3.017,13.366 l -12.072,22.85 c -2.444,4.6 -3.737,10.06 -3.737,14.084 l 0,15.09 c 0,6.754 4.598,10.778 11.928,10.778 7.76,0 11.783,-2.875 11.783,-9.63 l 0,-18.539 -5.172,0 0,17.966 c 0,4.167 -2.156,5.892 -6.18,5.892 -4.025,0 -6.181,-2.731 -6.181,-6.18 l 0,-16.096 c 0,-3.449 0.721,-6.467 2.301,-9.917 L 15.09,35.209 C 17.533,30.322 19.4,25.293 19.4,19.545 L 19.4,0 c 0,-6.611 -3.304,-10.636 -12.357,-10.636 -8.914,0 -12.217,4.025 -12.217,11.068 l 0,18.395 5.174,0 L 0,0 z"
             id="path5565"
             style="fill:#000000;fill-opacity:1;fill-rule:nonzero;stroke:none"
             inkscape:connector-curvature="0" /></g></g></g><g
       transform="translate(576.6669,343.9902)"
       id="g5567"><path
         d="m 0,0 -10.205,0 0,4.311 26.158,0 0,-4.311 -10.203,0 0,-99.451 -5.75,0 L 0,0 z"
         id="path5569"
         style="fill:#000000;fill-opacity:1;fill-rule:nonzero;stroke:none"
         inkscape:connector-curvature="0" /></g><g
       id="g5571"><g
         clip-path="url(#clipPath5575)"
         id="g5573"><g
           transform="translate(630.1279,255.1748)"
           id="g5579"><path
             d="m 0,0 c 0,-7.187 -4.457,-11.211 -12.504,-11.211 -8.047,0 -12.646,4.024 -12.646,11.211 l 0,82.491 c 0,7.186 4.599,11.21 12.646,11.21 C -4.457,93.701 0,89.677 0,82.491 L 0,0 z m -5.748,82.347 c 0,4.599 -2.588,7.043 -6.756,7.043 -4.166,0 -6.898,-2.444 -6.898,-7.043 l 0,-82.203 c 0,-4.6 2.732,-7.043 6.898,-7.043 4.168,0 6.756,2.443 6.756,7.043 l 0,82.203 z"
             id="path5581"
             style="fill:#000000;fill-opacity:1;fill-rule:nonzero;stroke:none"
             inkscape:connector-curvature="0" /></g><g
           transform="translate(491.1103,230.3828)"
           id="g5583"><path
             d="m 0,0 -0.338,0 c -0.209,1.029 -1.136,1.725 -2.644,1.725 -1.793,0 -2.977,-1.576 -2.977,-3.618 0,-2.585 1.609,-3.927 3.43,-3.927 1.322,0 2.123,0.738 2.342,1.76 L 0.148,-4.08 -0.06,-5.844 c -0.823,0 -1.553,-0.439 -2.817,-0.439 -2.331,0 -4.299,1.17 -4.299,4.044 0,2.295 1.576,4.417 4.413,4.417 1.044,0 2.007,-0.313 2.763,-0.313 L 0,0 z"
             id="path5585"
             style="fill:#000000;fill-opacity:1;fill-rule:nonzero;stroke:none"
             inkscape:connector-curvature="0" /></g><g
           transform="translate(496.0498,227.206)"
           id="g5587"><path
             d="m 0,0 c -0.217,0.426 -0.508,0.785 -1.03,0.785 -0.255,0 -0.429,-0.076 -0.429,-0.076 l 0,-2.48 c 0,-0.538 0.209,-0.686 0.672,-0.757 l 0.417,-0.057 0,-0.337 c 0,0 -0.997,0.034 -1.669,0.034 -0.717,0 -1.586,-0.034 -1.586,-0.034 l 0,0.337 0.301,0.057 c 0.5,0.092 0.752,0.465 0.752,1.134 l 0,5.438 c 0,0.537 -0.198,0.685 -0.673,0.755 l -0.38,0.055 0,0.339 c 0,0 0.961,-0.035 1.634,-0.035 0.52,0 0.938,0.035 1.461,0.035 1.469,0 2.686,-0.801 2.686,-2.214 C 2.156,1.54 0.79,1.029 0.361,0.937 0.594,0.785 0.777,0.577 1.057,0.131 l 0.88,-1.45 c 1.393,-2.286 3.305,-4.095 6.385,-4.095 1.379,0 2.553,0.372 2.553,0.987 0,0 0.033,0.013 0.077,0.013 0.105,0 0.304,-0.048 0.304,-0.304 0,-0.774 -2.039,-1.103 -3.063,-1.103 -3.3,0 -5.79,1.289 -7.275,4.092 L 0,0 z m -1.459,4.715 0,-3.694 c 0.199,0.14 0.465,0.229 0.8,0.229 0.268,0 0.475,-0.047 0.614,-0.104 0.465,0.127 0.998,0.86 0.998,1.809 0,1.23 -0.744,1.844 -1.809,1.844 -0.267,0 -0.475,-0.046 -0.603,-0.084"
             id="path5589"
             style="fill:#000000;fill-opacity:1;fill-rule:nonzero;stroke:none"
             inkscape:connector-curvature="0" /></g><g
           transform="translate(504.1015,232.582)"
           id="g5591"><path
             d="M 0,0 2.716,-7.185 C 2.861,-7.576 3.129,-7.85 3.524,-7.904 l 0.395,-0.057 0,-0.337 c 0,0 -0.686,0.05 -1.578,0.05 -1.09,0 -1.692,-0.05 -1.692,-0.05 l 0,0.337 0.3,0.057 c 0.454,0.084 0.592,0.235 0.592,0.521 0,0.188 -0.092,0.443 -0.151,0.595 l -0.557,1.525 -2.619,0 -0.603,-1.809 c -0.046,-0.137 -0.067,-0.265 -0.067,-0.367 0,-0.278 0.139,-0.394 0.637,-0.465 l 0.438,-0.057 0,-0.337 c 0,0 -0.739,0.034 -1.632,0.034 -0.683,0 -1.137,-0.034 -1.137,-0.034 l 0,0.337 0.303,0.057 c 0.498,0.092 0.706,0.453 0.925,1.056 l 2.47,6.779 L 0,0 z m -1.634,-4.783 2.295,0 -1.138,3.265 -1.157,-3.265 z"
             id="path5593"
             style="fill:#000000;fill-opacity:1;fill-rule:nonzero;stroke:none"
             inkscape:connector-curvature="0" /></g><g
           transform="translate(509.8232,231.25)"
           id="g5595"><path
             d="m 0,0 c 0,0.537 -0.199,0.685 -0.674,0.755 l -0.383,0.055 0,0.339 c 0,0 1.088,-0.035 1.633,-0.035 1.914,0 3.641,0.035 3.641,0.035 l 0,-1.904 -0.28,0 C 3.789,0.092 3.163,0.755 1.83,0.755 1.518,0.755 1.238,0.709 1.111,0.671 l 0,-3.361 0.825,0 c 0.716,0 0.949,0.359 1.041,0.881 l 0.082,0.463 0.291,0 c 0,0 -0.037,-0.859 -0.037,-1.467 0,-0.654 0.037,-1.346 0.037,-1.346 l -0.291,0 -0.047,0.277 c -0.071,0.478 -0.333,0.743 -0.973,0.743 l -0.928,0 0,-2.676 c 0,-0.538 0.243,-0.703 0.731,-0.757 l 0.467,-0.057 0,-0.337 c 0,0 -0.676,0.034 -1.774,0.034 -0.836,0 -1.592,-0.034 -1.592,-0.034 l 0,0.337 0.302,0.057 C -0.256,-6.479 0,-6.107 0,-5.437 L 0,0 z"
             id="path5597"
             style="fill:#000000;fill-opacity:1;fill-rule:nonzero;stroke:none"
             inkscape:connector-curvature="0" /></g><g
           transform="translate(517.1963,224.6777)"
           id="g5599"><path
             d="m 0,0 c 0.535,0.103 0.827,0.465 0.827,1.135 l 0,6.108 -0.765,0 c -1.068,0 -1.612,-0.334 -1.855,-1.135 l -0.289,0.063 0.127,1.733 0.275,0 c 0,0 0.094,-0.182 0.466,-0.182 l 5.345,0 c 0.346,0 0.461,0.182 0.461,0.182 l 0.256,0 L 4.72,6.108 4.432,6.171 c 0,0.797 -0.524,1.072 -1.219,1.072 l -1.274,0 0,-6.486 C 1.939,0.22 2.217,0.071 2.68,0 l 0.372,-0.057 0,-0.337 c 0,0 -0.788,0.035 -1.693,0.035 -0.813,0 -1.646,-0.035 -1.646,-0.035 l 0,0.337 L 0,0 z"
             id="path5601"
             style="fill:#000000;fill-opacity:1;fill-rule:nonzero;stroke:none"
             inkscape:connector-curvature="0" /></g><g
           transform="translate(599.5848,227.7808)"
           id="g5603"><path
             d="m 0,0 c -0.788,0 -1.193,0.327 -1.449,0.339 l 0,-2.606 c 0,-0.537 0.244,-0.702 0.709,-0.758 l 0.498,-0.058 0,-0.337 c 0,0 -0.858,0.035 -1.785,0.035 -0.837,0 -1.588,-0.035 -1.588,-0.035 l 0,0.337 0.302,0.058 c 0.499,0.093 0.75,0.462 0.75,1.136 l 0,5.436 c 0,0.531 -0.195,0.685 -0.671,0.754 l -0.381,0.058 0,0.338 c 0,0 0.925,-0.037 1.529,-0.037 0.277,0 1.298,0.037 1.588,0.037 1.414,0 2.722,-0.805 2.722,-2.284 C 2.224,0.694 0.975,0 0,0 m 1.033,2.4 c 0,1.229 -0.858,1.901 -1.879,1.901 -0.265,0 -0.473,-0.045 -0.603,-0.082 l 0,-3.535 c 0.234,0 0.545,-0.186 1.035,-0.186 1.018,0 1.447,0.906 1.447,1.902"
             id="path5605"
             style="fill:#000000;fill-opacity:1;fill-rule:nonzero;stroke:none"
             inkscape:connector-curvature="0" /></g><g
           transform="translate(606.0576,224.6977)"
           id="g5607"><path
             d="m 0,0 0,-0.337 c 0,0 -0.731,0.035 -1.634,0.035 -0.808,0 -1.587,-0.035 -1.587,-0.035 l 0,0.337 0.301,0.058 c 0.5,0.093 0.754,0.463 0.754,1.136 l 0,5.436 c 0,0.531 -0.198,0.685 -0.672,0.754 l -0.383,0.058 0,0.338 c 0,0 0.727,-0.037 1.633,-0.037 C -0.775,7.743 0,7.78 0,7.78 L 0,7.442 -0.232,7.384 C -0.707,7.271 -1.054,6.921 -1.054,6.248 l 0,-5.432 c 0,-0.537 0.208,-0.687 0.671,-0.758 L 0,0 z"
             id="path5609"
             style="fill:#000000;fill-opacity:1;fill-rule:nonzero;stroke:none"
             inkscape:connector-curvature="0" /></g><g
           transform="translate(613.4803,232.2222)"
           id="g5611"><path
             d="m 0,0 -4.995,-7.382 2.109,0.113 c 1.76,0.093 2.481,0.869 3.047,2.042 l 0.28,-0.072 -0.638,-2.562 -6.259,0 -0.092,0.164 5.063,7.464 -2.455,-0.13 c -1.266,-0.066 -1.822,-0.486 -2.089,-1.355 l -0.276,0.035 0.267,2.122 0.326,0 c 0,0 0.033,-0.183 0.52,-0.183 l 5.088,0 L 0,0 z"
             id="path5613"
             style="fill:#000000;fill-opacity:1;fill-rule:nonzero;stroke:none"
             inkscape:connector-curvature="0" /></g><g
           transform="translate(621.0781,232.2222)"
           id="g5615"><path
             d="m 0,0 -4.999,-7.382 2.113,0.113 c 1.762,0.093 2.481,0.869 3.048,2.042 l 0.278,-0.072 -0.636,-2.562 -6.259,0 -0.093,0.164 5.063,7.464 -2.457,-0.13 c -1.262,-0.066 -1.821,-0.486 -2.086,-1.355 l -0.278,0.035 0.268,2.122 0.324,0 c 0,0 0.035,-0.183 0.52,-0.183 l 5.089,0 L 0,0 z"
             id="path5617"
             style="fill:#000000;fill-opacity:1;fill-rule:nonzero;stroke:none"
             inkscape:connector-curvature="0" /></g><g
           transform="translate(626.1494,232.6616)"
           id="g5619"><path
             d="m 0,0 2.711,-7.186 c 0.15,-0.395 0.416,-0.664 0.81,-0.72 l 0.397,-0.058 0,-0.337 c 0,0 -0.687,0.049 -1.576,0.049 -1.093,0 -1.696,-0.049 -1.696,-0.049 l 0,0.337 0.302,0.058 c 0.452,0.085 0.593,0.235 0.593,0.521 0,0.187 -0.095,0.446 -0.152,0.595 l -0.556,1.527 -2.62,0 -0.603,-1.809 c -0.044,-0.138 -0.069,-0.265 -0.069,-0.371 0,-0.275 0.14,-0.392 0.638,-0.463 l 0.441,-0.058 0,-0.337 c 0,0 -0.743,0.035 -1.634,0.035 -0.682,0 -1.138,-0.035 -1.138,-0.035 l 0,0.337 0.302,0.058 c 0.5,0.094 0.709,0.451 0.928,1.056 L -0.453,-0.071 0,0 z m -1.635,-4.786 2.295,0 -1.137,3.265 -1.158,-3.265 z"
             id="path5621"
             style="fill:#000000;fill-opacity:1;fill-rule:nonzero;stroke:none"
             inkscape:connector-curvature="0" /></g><g
           transform="translate(548.3766,227.7808)"
           id="g5623"><path
             d="m 0,0 c -0.787,0 -1.193,0.327 -1.45,0.339 l 0,-2.606 c 0,-0.537 0.245,-0.702 0.708,-0.758 l 0.498,-0.058 0,-0.337 c 0,0 -0.858,0.035 -1.784,0.035 -0.833,0 -1.589,-0.035 -1.589,-0.035 l 0,0.337 0.303,0.058 c 0.499,0.093 0.753,0.462 0.753,1.136 l 0,5.436 c 0,0.531 -0.197,0.685 -0.671,0.754 l -0.385,0.058 0,0.338 c 0,0 0.93,-0.037 1.533,-0.037 0.275,0 1.297,0.037 1.584,0.037 1.415,0 2.727,-0.805 2.727,-2.284 C 2.227,0.694 0.973,0 0,0 m 1.033,2.4 c 0,1.229 -0.859,1.901 -1.88,1.901 -0.266,0 -0.475,-0.045 -0.603,-0.082 l 0,-3.535 c 0.233,0 0.546,-0.186 1.033,-0.186 1.019,0 1.45,0.906 1.45,1.902"
             id="path5625"
             style="fill:#000000;fill-opacity:1;fill-rule:nonzero;stroke:none"
             inkscape:connector-curvature="0" /></g><g
           transform="translate(554.107,232.6616)"
           id="g5627"><path
             d="m 0,0 2.711,-7.186 c 0.152,-0.395 0.42,-0.664 0.813,-0.72 l 0.392,-0.058 0,-0.337 c 0,0 -0.682,0.049 -1.574,0.049 -1.089,0 -1.696,-0.049 -1.696,-0.049 l 0,0.337 0.305,0.058 c 0.451,0.085 0.59,0.235 0.59,0.521 0,0.187 -0.092,0.446 -0.152,0.595 l -0.553,1.527 -2.622,0 -0.601,-1.809 c -0.047,-0.138 -0.07,-0.265 -0.07,-0.371 0,-0.275 0.139,-0.392 0.638,-0.463 l 0.438,-0.058 0,-0.337 c 0,0 -0.74,0.035 -1.634,0.035 -0.68,0 -1.133,-0.035 -1.133,-0.035 l 0,0.337 0.3,0.058 c 0.498,0.094 0.706,0.451 0.929,1.056 L -0.451,-0.071 0,0 z m -1.635,-4.786 2.295,0 -1.135,3.265 -1.16,-3.265 z"
             id="path5629"
             style="fill:#000000;fill-opacity:1;fill-rule:nonzero;stroke:none"
             inkscape:connector-curvature="0" /></g><g
           transform="translate(563.3151,230.5874)"
           id="g5631"><path
             d="m 0,0 -0.337,0 c 0,0.962 -0.693,1.588 -1.717,1.588 -0.879,0 -1.434,-0.534 -1.434,-1.23 0,-1.693 3.858,-1.97 3.858,-4.461 0,-1.415 -1.088,-2.311 -2.664,-2.311 -1.207,0 -1.394,0.352 -2.307,0.352 l 0,1.887 0.336,0 c 0.045,-0.855 0.661,-1.774 1.899,-1.774 0.849,0 1.728,0.491 1.728,1.416 0,1.914 -3.753,1.828 -3.753,4.477 0,1.141 0.843,2.107 2.503,2.107 0.764,0 1.321,-0.244 1.992,-0.244 L 0,0 z"
             id="path5633"
             style="fill:#000000;fill-opacity:1;fill-rule:nonzero;stroke:none"
             inkscape:connector-curvature="0" /></g><g
           transform="translate(566.5543,224.7554)"
           id="g5635"><path
             d="m 0,0 c 0.533,0.104 0.823,0.463 0.823,1.137 l 0,6.107 -0.762,0 c -1.069,0 -1.613,-0.334 -1.858,-1.135 l -0.289,0.062 0.129,1.735 0.275,0 c 0,0 0.093,-0.183 0.465,-0.183 l 5.342,0 c 0.349,0 0.463,0.183 0.463,0.183 l 0.257,0 L 4.717,6.109 4.428,6.171 c 0,0.798 -0.522,1.073 -1.215,1.073 l -1.277,0 0,-6.485 C 1.936,0.222 2.214,0.071 2.68,0 l 0.367,-0.058 0,-0.337 c 0,0 -0.787,0.036 -1.691,0.036 -0.811,0 -1.645,-0.036 -1.645,-0.036 l 0,0.337 L 0,0 z"
             id="path5637"
             style="fill:#000000;fill-opacity:1;fill-rule:nonzero;stroke:none"
             inkscape:connector-curvature="0" /></g><g
           transform="translate(574.9059,232.6616)"
           id="g5639"><path
             d="m 0,0 2.711,-7.186 c 0.152,-0.395 0.418,-0.664 0.811,-0.72 l 0.392,-0.058 0,-0.337 c 0,0 -0.684,0.049 -1.574,0.049 -1.09,0 -1.692,-0.049 -1.692,-0.049 l 0,0.337 0.299,0.058 c 0.453,0.085 0.593,0.235 0.593,0.521 0,0.187 -0.093,0.446 -0.15,0.595 l -0.558,1.527 -2.617,0 -0.604,-1.809 c -0.045,-0.138 -0.07,-0.265 -0.07,-0.371 0,-0.275 0.141,-0.392 0.639,-0.463 l 0.441,-0.058 0,-0.337 c 0,0 -0.743,0.035 -1.635,0.035 -0.683,0 -1.137,-0.035 -1.137,-0.035 l 0,0.337 0.301,0.058 c 0.5,0.094 0.708,0.451 0.928,1.056 L -0.451,-0.071 0,0 z m -1.635,-4.786 2.291,0 -1.135,3.265 -1.156,-3.265 z"
             id="path5641"
             style="fill:#000000;fill-opacity:1;fill-rule:nonzero;stroke:none"
             inkscape:connector-curvature="0" /></g><g
           transform="translate(454.3994,225.1465)"
           id="g5643"><path
             d="m 0,0 c 0,-0.169 0.054,-0.286 0.164,-0.353 0.109,-0.062 0.332,-0.127 0.662,-0.195 0.083,-0.017 0.129,-0.078 0.129,-0.181 0,-0.065 -0.01,-0.145 -0.027,-0.227 -0.211,0.016 -0.463,0.03 -0.75,0.045 -0.287,0.014 -0.545,0.015 -0.772,0.015 -0.235,0 -0.486,-0.001 -0.752,-0.015 -0.265,-0.015 -0.525,-0.029 -0.783,-0.045 -0.015,0.082 -0.024,0.162 -0.024,0.227 0,0.103 0.042,0.164 0.128,0.181 0.314,0.06 0.531,0.123 0.648,0.191 0.119,0.069 0.178,0.188 0.178,0.357 l 0,3.081 -3.998,0 0,-3.081 c 0,-0.169 0.056,-0.286 0.168,-0.353 0.109,-0.062 0.328,-0.127 0.662,-0.195 0.092,-0.017 0.139,-0.078 0.139,-0.181 0,-0.065 -0.008,-0.145 -0.028,-0.227 -0.218,0.016 -0.473,0.03 -0.761,0.045 -0.29,0.014 -0.548,0.015 -0.777,0.015 -0.237,0 -0.488,-0.001 -0.751,-0.015 -0.264,-0.015 -0.526,-0.029 -0.79,-0.045 -0.017,0.082 -0.024,0.162 -0.024,0.227 0,0.103 0.041,0.164 0.127,0.181 0.322,0.06 0.541,0.123 0.663,0.191 0.116,0.069 0.176,0.188 0.176,0.357 l 0,6.467 c 0,0.084 -0.009,0.153 -0.032,0.211 -0.02,0.053 -0.061,0.099 -0.12,0.146 -0.059,0.041 -0.142,0.076 -0.248,0.107 -0.106,0.03 -0.246,0.059 -0.414,0.096 -0.084,0.01 -0.128,0.077 -0.128,0.204 0,0.056 0.009,0.129 0.026,0.216 0.213,-0.018 0.459,-0.033 0.74,-0.044 0.278,-0.013 0.534,-0.02 0.762,-0.02 0.238,0 0.49,0.007 0.75,0.02 0.263,0.011 0.524,0.026 0.779,0.044 0.016,-0.087 0.022,-0.16 0.022,-0.216 0,-0.12 -0.039,-0.186 -0.125,-0.204 -0.33,-0.05 -0.549,-0.115 -0.656,-0.19 -0.106,-0.079 -0.16,-0.2 -0.16,-0.37 l 0,-2.854 3.998,0 0,2.854 c 0,0.144 -0.051,0.258 -0.151,0.35 -0.101,0.086 -0.318,0.16 -0.65,0.21 -0.095,0.01 -0.141,0.077 -0.141,0.204 0,0.056 0.008,0.129 0.026,0.216 0.213,-0.018 0.463,-0.033 0.745,-0.044 0.284,-0.013 0.538,-0.02 0.764,-0.02 0.236,0 0.483,0.007 0.739,0.02 C 0.391,7.414 0.652,7.429 0.914,7.447 0.933,7.36 0.942,7.287 0.942,7.231 0.942,7.111 0.897,7.045 0.813,7.027 0.483,6.977 0.265,6.912 0.159,6.837 0.051,6.758 0,6.637 0,6.467 L 0,0 z"
             id="path5645"
             style="fill:#000000;fill-opacity:1;fill-rule:nonzero;stroke:none"
             inkscape:connector-curvature="0" /></g><g
           transform="translate(461.4248,227.2851)"
           id="g5647"><path
             d="m 0,0 -2.836,0 -0.817,-2.052 c -0.041,-0.099 -0.064,-0.184 -0.064,-0.253 0,-0.178 0.259,-0.305 0.777,-0.382 0.059,-0.007 0.1,-0.031 0.121,-0.073 0.022,-0.036 0.032,-0.079 0.032,-0.131 0,-0.048 -0.01,-0.122 -0.027,-0.204 -0.228,0.016 -0.47,0.031 -0.723,0.045 -0.258,0.014 -0.506,0.016 -0.752,0.016 -0.17,0 -0.346,-0.002 -0.523,-0.009 -0.176,-0.01 -0.365,-0.028 -0.559,-0.052 -0.019,0.069 -0.027,0.138 -0.027,0.204 0,0.059 0.009,0.11 0.033,0.154 0.021,0.043 0.064,0.067 0.132,0.074 0.264,0.044 0.461,0.097 0.594,0.158 0.131,0.066 0.227,0.164 0.285,0.3 l 3.068,7.387 c 0.057,0.141 0.14,0.216 0.243,0.216 0.033,0 0.085,-0.008 0.153,-0.027 l 3.081,-7.614 c 0.049,-0.115 0.166,-0.21 0.346,-0.278 0.176,-0.068 0.349,-0.116 0.518,-0.142 0.052,-0.015 0.093,-0.041 0.123,-0.067 0.03,-0.034 0.044,-0.085 0.044,-0.161 0,-0.048 -0.007,-0.122 -0.025,-0.204 -0.272,0.016 -0.543,0.031 -0.803,0.045 -0.263,0.014 -0.507,0.016 -0.738,0.016 -0.238,0 -0.512,-0.002 -0.816,-0.016 -0.305,-0.014 -0.58,-0.029 -0.825,-0.045 -0.017,0.082 -0.027,0.156 -0.027,0.204 0,0.076 0.016,0.127 0.045,0.161 0.029,0.026 0.058,0.043 0.081,0.043 0.222,0.042 0.401,0.09 0.535,0.146 0.136,0.057 0.206,0.139 0.206,0.25 0,0.048 -0.018,0.115 -0.053,0.187 L 0,0 z m -0.205,0.52 -1.182,3.119 -1.236,-3.119 2.418,0 z"
             id="path5649"
             style="fill:#000000;fill-opacity:1;fill-rule:nonzero;stroke:none"
             inkscape:connector-curvature="0" /></g><g
           transform="translate(471.8759,226.2803)"
           id="g5651"><path
             d="m 0,0 0,5.318 c 0,0.19 -0.067,0.319 -0.203,0.397 -0.133,0.075 -0.365,0.137 -0.687,0.179 -0.094,0.009 -0.139,0.08 -0.139,0.215 0,0.048 0.008,0.118 0.025,0.205 C -0.793,6.295 -0.576,6.28 -0.355,6.27 -0.136,6.256 0.074,6.249 0.27,6.249 0.457,6.249 0.65,6.256 0.855,6.27 1.057,6.28 1.258,6.295 1.453,6.314 1.472,6.227 1.478,6.157 1.478,6.109 1.478,5.974 1.438,5.903 1.35,5.894 1.062,5.852 0.865,5.79 0.761,5.715 0.654,5.637 0.6,5.516 0.6,5.347 l 0,-7.498 C 0.584,-2.162 0.555,-2.168 0.513,-2.17 0.468,-2.179 0.434,-2.179 0.41,-2.179 c -0.062,0 -0.114,0.015 -0.168,0.044 -0.049,0.031 -0.108,0.092 -0.176,0.189 l -5.168,6.807 0,-5.995 c 0,-0.169 0.059,-0.288 0.174,-0.357 0.121,-0.068 0.35,-0.131 0.689,-0.191 0.087,-0.017 0.127,-0.083 0.127,-0.204 0,-0.049 -0.005,-0.122 -0.025,-0.204 -0.21,0.016 -0.425,0.03 -0.644,0.045 -0.215,0.014 -0.416,0.016 -0.604,0.016 -0.168,0 -0.367,-0.002 -0.596,-0.016 -0.23,-0.015 -0.439,-0.029 -0.626,-0.045 -0.016,0.082 -0.024,0.155 -0.024,0.204 0,0.121 0.047,0.187 0.14,0.204 0.305,0.06 0.511,0.123 0.618,0.191 0.105,0.069 0.158,0.188 0.158,0.357 l 0,6.541 c 0,0.139 -0.05,0.242 -0.144,0.315 -0.1,0.07 -0.3,0.13 -0.608,0.172 -0.094,0.017 -0.14,0.087 -0.14,0.215 0,0.042 0.006,0.083 0.013,0.115 0,0.025 0.004,0.056 0.014,0.09 0.168,-0.019 0.331,-0.03 0.481,-0.041 0.14,-0.006 0.283,-0.013 0.435,-0.017 0.152,-0.004 0.289,-0.007 0.407,-0.007 0.245,0 0.413,-0.007 0.489,-0.025 0.083,-0.019 0.148,-0.059 0.199,-0.126 L 0,0 z"
             id="path5653"
             style="fill:#000000;fill-opacity:1;fill-rule:nonzero;stroke:none"
             inkscape:connector-curvature="0" /></g><g
           transform="translate(482.9541,228.3926)"
           id="g5655"><path
             d="m 0,0 c 0,-0.503 -0.086,-0.997 -0.263,-1.494 -0.172,-0.491 -0.435,-0.933 -0.79,-1.325 -0.351,-0.395 -0.797,-0.713 -1.336,-0.955 -0.539,-0.243 -1.168,-0.368 -1.889,-0.368 l -2.611,0 c -0.218,0 -0.471,-0.002 -0.749,-0.015 -0.282,-0.015 -0.552,-0.03 -0.817,-0.045 -0.015,0.082 -0.026,0.155 -0.026,0.204 0,0.121 0.049,0.186 0.141,0.204 0.316,0.076 0.541,0.148 0.674,0.216 0.137,0.068 0.205,0.18 0.205,0.332 l 0,6.48 c 0,0.169 -0.063,0.285 -0.19,0.357 -0.127,0.065 -0.357,0.13 -0.689,0.19 -0.051,0.01 -0.087,0.035 -0.107,0.076 -0.02,0.042 -0.034,0.09 -0.034,0.14 0,0.048 0.011,0.117 0.026,0.204 0.182,-0.018 0.332,-0.027 0.465,-0.033 0.131,-0.003 0.259,-0.009 0.376,-0.02 0.119,-0.006 0.235,-0.011 0.35,-0.011 l 0.364,0 2.607,0 c 0.715,0 1.34,-0.111 1.879,-0.33 0.537,-0.22 0.988,-0.52 1.344,-0.89 C -0.715,2.54 -0.445,2.103 -0.268,1.605 -0.09,1.1 0,0.568 0,0 m -1.338,-0.243 c 0,1.305 -0.324,2.277 -0.973,2.911 -0.652,0.628 -1.597,0.947 -2.844,0.947 l -1.11,0 0,-6.774 c 0,-0.083 0.021,-0.158 0.064,-0.215 0.042,-0.059 0.114,-0.105 0.216,-0.14 0.102,-0.037 0.245,-0.06 0.423,-0.077 0.175,-0.017 0.399,-0.029 0.673,-0.029 0.653,0 1.205,0.085 1.655,0.238 0.449,0.159 0.814,0.384 1.093,0.675 0.28,0.295 0.485,0.647 0.613,1.065 0.127,0.413 0.19,0.88 0.19,1.399"
             id="path5657"
             style="fill:#000000;fill-opacity:1;fill-rule:nonzero;stroke:none"
             inkscape:connector-curvature="0" /></g><g
           transform="translate(525.5498,232.0078)"
           id="g5659"><path
             d="m 0,0 0,-3.26 1.987,0 c 0.169,0 0.292,0.082 0.362,0.246 0.073,0.17 0.131,0.372 0.172,0.609 0.026,0.106 0.104,0.164 0.231,0.164 0.023,0 0.058,-0.006 0.102,-0.014 C 2.896,-2.262 2.931,-2.273 2.955,-2.279 2.935,-2.467 2.923,-2.678 2.91,-2.915 2.896,-3.154 2.892,-3.361 2.892,-3.539 c 0,-0.147 0.004,-0.323 0.012,-0.528 0.008,-0.206 0.027,-0.443 0.051,-0.707 -0.066,-0.017 -0.133,-0.028 -0.191,-0.028 -0.136,0 -0.217,0.058 -0.243,0.168 -0.041,0.238 -0.099,0.44 -0.172,0.605 -0.07,0.165 -0.193,0.249 -0.362,0.249 L 0,-3.78 0,-6.784 c 0,-0.182 0.113,-0.297 0.346,-0.359 0.226,-0.058 0.606,-0.092 1.133,-0.092 l 0.701,0 c 0.242,0 0.459,0.04 0.642,0.11 0.18,0.076 0.343,0.173 0.481,0.296 0.142,0.122 0.267,0.267 0.377,0.439 0.111,0.169 0.216,0.355 0.32,0.559 0.024,0.06 0.088,0.089 0.19,0.089 0.04,0 0.087,-0.011 0.134,-0.039 0.045,-0.025 0.09,-0.05 0.132,-0.075 C 4.379,-6.018 4.313,-6.213 4.259,-6.435 4.205,-6.66 4.15,-6.874 4.101,-7.08 4.049,-7.284 3.997,-7.456 3.941,-7.602 3.887,-7.747 3.816,-7.817 3.732,-7.817 c -0.068,0 -0.168,0.004 -0.293,0.011 -0.126,0.01 -0.267,0.016 -0.416,0.019 -0.147,0.009 -0.296,0.012 -0.45,0.021 -0.153,0.007 -0.284,0.009 -0.393,0.009 l -2.789,0 c -0.245,0 -0.509,-0.002 -0.79,-0.015 -0.281,-0.015 -0.548,-0.03 -0.801,-0.045 -0.018,0.082 -0.029,0.155 -0.029,0.204 0,0.121 0.044,0.186 0.129,0.204 0.324,0.059 0.555,0.123 0.696,0.19 0.138,0.07 0.211,0.189 0.211,0.358 l 0,6.48 c 0,0.169 -0.065,0.283 -0.188,0.353 -0.123,0.06 -0.361,0.124 -0.719,0.194 -0.085,0.018 -0.129,0.088 -0.129,0.216 0,0.042 0.003,0.08 0.008,0.108 0.006,0.029 0.01,0.063 0.021,0.096 0.361,-0.025 0.669,-0.042 0.915,-0.053 0.244,-0.007 0.467,-0.012 0.662,-0.012 l 2.508,0 c 0.383,0 0.714,0.012 0.993,0.04 0.28,0.025 0.465,0.038 0.561,0.038 0.111,0 0.185,-0.071 0.221,-0.21 C 3.699,0.248 3.732,0.08 3.758,-0.117 3.782,-0.311 3.813,-0.517 3.845,-0.74 3.883,-0.957 3.943,-1.146 4.037,-1.3 3.967,-1.351 3.893,-1.377 3.806,-1.377 3.697,-1.377 3.624,-1.341 3.59,-1.258 3.492,-1.041 3.393,-0.852 3.299,-0.693 3.207,-0.536 3.095,-0.409 2.973,-0.309 2.851,-0.205 2.703,-0.128 2.527,-0.078 2.356,-0.024 2.139,0 1.885,0 L 0,0 z"
             id="path5661"
             style="fill:#000000;fill-opacity:1;fill-rule:nonzero;stroke:none"
             inkscape:connector-curvature="0" /></g><g
           transform="translate(539.5029,228.3926)"
           id="g5663"><path
             d="m 0,0 c 0,-0.503 -0.088,-0.997 -0.26,-1.494 -0.174,-0.491 -0.437,-0.933 -0.791,-1.325 -0.352,-0.395 -0.797,-0.713 -1.336,-0.955 -0.54,-0.243 -1.168,-0.368 -1.89,-0.368 l -2.612,0 c -0.216,0 -0.468,-0.002 -0.749,-0.015 -0.279,-0.015 -0.551,-0.03 -0.815,-0.045 -0.017,0.082 -0.025,0.155 -0.025,0.204 0,0.121 0.046,0.186 0.14,0.204 0.313,0.076 0.538,0.148 0.674,0.216 0.137,0.068 0.205,0.18 0.205,0.332 l 0,6.48 c 0,0.169 -0.066,0.285 -0.189,0.357 -0.129,0.065 -0.358,0.13 -0.69,0.19 -0.051,0.01 -0.086,0.035 -0.107,0.076 -0.02,0.042 -0.033,0.09 -0.033,0.14 0,0.048 0.008,0.117 0.025,0.204 0.18,-0.018 0.334,-0.027 0.467,-0.033 0.129,-0.003 0.254,-0.009 0.374,-0.02 0.119,-0.006 0.236,-0.011 0.35,-0.011 l 0.361,0 2.612,0 c 0.713,0 1.338,-0.111 1.877,-0.33 0.539,-0.22 0.986,-0.52 1.343,-0.89 C -0.713,2.54 -0.446,2.103 -0.268,1.605 -0.088,1.1 0,0.568 0,0 m -1.335,-0.243 c 0,1.305 -0.324,2.277 -0.974,2.911 -0.652,0.628 -1.597,0.947 -2.846,0.947 l -1.108,0 0,-6.774 c 0,-0.083 0.021,-0.158 0.066,-0.215 0.039,-0.059 0.113,-0.105 0.214,-0.14 0.101,-0.037 0.243,-0.06 0.42,-0.077 0.178,-0.017 0.405,-0.029 0.676,-0.029 0.654,0 1.203,0.085 1.655,0.238 0.449,0.159 0.814,0.384 1.094,0.675 0.281,0.295 0.484,0.647 0.611,1.065 0.127,0.413 0.192,0.88 0.192,1.399"
             id="path5665"
             style="fill:#000000;fill-opacity:1;fill-rule:nonzero;stroke:none"
             inkscape:connector-curvature="0" /></g><g
           transform="translate(591.8798,224.373)"
           id="g5667"><path
             d="m 0,0 c 0,-0.018 -0.004,-0.051 -0.008,-0.104 -0.005,-0.047 -0.016,-0.096 -0.035,-0.141 -0.264,0.028 -0.619,0.041 -1.063,0.041 -0.128,0 -0.266,0.012 -0.41,0.035 -0.146,0.023 -0.318,0.077 -0.518,0.163 C -2.235,0.08 -2.475,0.217 -2.752,0.404 -3.029,0.589 -3.358,0.847 -3.74,1.173 -4.134,0.739 -4.562,0.389 -5.031,0.122 -5.5,-0.14 -6.021,-0.271 -6.596,-0.271 c -0.353,0 -0.683,0.042 -0.988,0.128 -0.305,0.087 -0.566,0.217 -0.785,0.397 -0.218,0.177 -0.389,0.407 -0.512,0.688 -0.123,0.282 -0.185,0.615 -0.185,0.997 0,0.518 0.161,0.993 0.479,1.418 0.318,0.429 0.769,0.824 1.351,1.19 -0.237,0.236 -0.428,0.455 -0.575,0.655 -0.144,0.2 -0.262,0.391 -0.354,0.578 -0.091,0.187 -0.152,0.37 -0.184,0.548 -0.032,0.178 -0.047,0.359 -0.047,0.552 0,0.502 0.183,0.904 0.552,1.21 0.369,0.304 0.844,0.458 1.427,0.458 0.282,0 0.541,-0.047 0.778,-0.138 0.237,-0.091 0.441,-0.218 0.616,-0.376 0.171,-0.158 0.305,-0.351 0.402,-0.574 0.096,-0.223 0.142,-0.466 0.142,-0.73 0,-0.318 -0.097,-0.635 -0.292,-0.955 -0.196,-0.32 -0.541,-0.639 -1.032,-0.968 0.491,-0.5 0.938,-0.95 1.338,-1.347 0.401,-0.395 0.76,-0.741 1.078,-1.044 0.174,0.237 0.333,0.482 0.479,0.738 0.145,0.254 0.27,0.492 0.375,0.716 0.104,0.226 0.185,0.429 0.246,0.616 0.058,0.188 0.088,0.329 0.088,0.429 0,0.101 -0.036,0.176 -0.11,0.226 -0.072,0.05 -0.226,0.097 -0.462,0.144 -0.12,0.008 -0.178,0.067 -0.178,0.176 0,0.018 0.002,0.056 0.006,0.109 0.005,0.055 0.016,0.096 0.035,0.124 0.172,-0.017 0.363,-0.03 0.572,-0.034 0.211,-0.006 0.424,-0.007 0.642,-0.007 0.419,0 0.778,0.013 1.079,0.041 0.01,-0.036 0.017,-0.081 0.027,-0.131 0.009,-0.048 0.013,-0.084 0.013,-0.102 0,-0.101 -0.059,-0.163 -0.177,-0.192 C -0.881,5.243 -0.984,5.219 -1.065,5.196 -1.148,5.173 -1.218,5.141 -1.277,5.1 -1.336,5.058 -1.396,4.999 -1.455,4.922 -1.515,4.843 -1.574,4.738 -1.64,4.602 -1.839,4.172 -2.053,3.743 -2.281,3.311 -2.508,2.879 -2.759,2.462 -3.031,2.062 -2.695,1.742 -2.398,1.478 -2.144,1.263 -1.89,1.049 -1.669,0.876 -1.482,0.739 -1.296,0.6 -1.139,0.498 -1.012,0.422 -0.885,0.351 -0.77,0.301 -0.67,0.274 -0.652,0.266 -0.605,0.258 -0.533,0.254 -0.461,0.247 -0.386,0.235 -0.309,0.221 -0.23,0.202 -0.16,0.174 -0.096,0.138 -0.033,0.1 0,0.054 0,0 M -6.922,4.205 C -7.24,3.931 -7.486,3.62 -7.658,3.263 -7.832,2.91 -7.92,2.541 -7.92,2.157 c 0,-0.326 0.059,-0.597 0.172,-0.81 0.113,-0.217 0.255,-0.384 0.424,-0.507 0.168,-0.124 0.347,-0.211 0.539,-0.259 0.189,-0.051 0.363,-0.075 0.517,-0.075 0.383,0 0.741,0.075 1.073,0.226 0.332,0.15 0.685,0.41 1.057,0.783 -0.364,0.32 -0.772,0.695 -1.227,1.133 -0.456,0.438 -0.975,0.956 -1.557,1.557 m 0.791,0.902 c 0.266,0.236 0.452,0.488 0.561,0.763 0.109,0.274 0.163,0.528 0.163,0.764 0,0.436 -0.091,0.773 -0.272,1.012 -0.182,0.237 -0.462,0.355 -0.835,0.355 -0.234,0 -0.431,-0.076 -0.586,-0.227 -0.155,-0.149 -0.232,-0.356 -0.232,-0.62 0,-0.274 0.082,-0.566 0.246,-0.881 0.164,-0.314 0.482,-0.703 0.955,-1.166"
             id="path5669"
             style="fill:#000000;fill-opacity:1;fill-rule:nonzero;stroke:none"
             inkscape:connector-curvature="0" /></g></g></g></g></svg>